<mxfile host="app.diagrams.net" modified="2021-02-11T02:17:24.245Z" agent="5.0 (Windows NT 10.0; Win64; x64) AppleWebKit/537.36 (KHTML, like Gecko) Chrome/88.0.4324.150 Safari/537.36" etag="lasv4LbTV7AxPAG_dhfl" version="14.3.0" type="github">
  <diagram id="6a731a19-8d31-9384-78a2-239565b7b9f0" name="Page-1">
    <mxGraphModel dx="1526" dy="859" grid="1" gridSize="10" guides="1" tooltips="1" connect="1" arrows="1" fold="1" page="1" pageScale="1" pageWidth="1169" pageHeight="827" background="#ffffff" math="0" shadow="0">
      <root>
        <mxCell id="0" />
        <mxCell id="1" parent="0" />
        <mxCell id="2" value="start" style="shape=mxgraph.flowchart.terminator;strokeWidth=2;gradientColor=none;gradientDirection=north;fontStyle=0;html=1;" parent="1" vertex="1">
          <mxGeometry x="650" y="90" width="120" height="30" as="geometry" />
        </mxCell>
        <mxCell id="45" value="" style="edgeStyle=elbowEdgeStyle;elbow=horizontal;exitX=1;exitY=0.5;exitPerimeter=0;entryX=0.905;entryY=0.5;entryPerimeter=0;fontStyle=1;strokeColor=#003366;strokeWidth=1;html=1;" parent="1" target="34" edge="1">
          <mxGeometry width="100" height="100" as="geometry">
            <mxPoint x="380.5" y="1119.2499999999995" as="sourcePoint" />
            <mxPoint x="100" as="targetPoint" />
            <Array as="points">
              <mxPoint x="950" y="1320" />
            </Array>
          </mxGeometry>
        </mxCell>
        <mxCell id="BRGhU7Gg1eaPv6mwPw0Z-57" value="&lt;pre style=&quot;font-size: 15px&quot;&gt;&lt;ol&gt;&lt;li&gt;&lt;font face=&quot;Courier New&quot; style=&quot;font-size: 15px&quot;&gt;&lt;b&gt;void &lt;/b&gt;insertionSort (&lt;b&gt;int &lt;/b&gt;array [], &lt;b&gt;int&lt;/b&gt;&amp;nbsp;size) {&lt;br/&gt;&lt;br/&gt;&lt;/font&gt;&lt;/li&gt;&lt;li&gt;&lt;font face=&quot;Courier New&quot; style=&quot;font-size: 15px&quot;&gt;&lt;b&gt;   int&lt;/b&gt;&amp;nbsp;j;&lt;br/&gt;&lt;br/&gt;&lt;/font&gt;&lt;/li&gt;&lt;li&gt;&lt;font face=&quot;Courier New&quot; style=&quot;font-size: 15px&quot;&gt;   &lt;b&gt;int&lt;/b&gt; key;&lt;br/&gt;&lt;br/&gt;&lt;/font&gt;&lt;/li&gt;&lt;li&gt;&lt;font face=&quot;Courier New&quot; style=&quot;font-size: 15px&quot;&gt;   &lt;b&gt;for&lt;/b&gt; (&lt;b&gt;int&lt;/b&gt; i = 1; i &amp;lt; size; i++) {&lt;br/&gt;&lt;br/&gt;&lt;/font&gt;&lt;/li&gt;&lt;li&gt;&lt;font face=&quot;Courier New&quot; style=&quot;font-size: 15px&quot;&gt;      j = i;&lt;br/&gt;&lt;br/&gt;&lt;/font&gt;&lt;/li&gt;&lt;li&gt;&lt;font face=&quot;Courier New&quot; style=&quot;font-size: 15px&quot;&gt;      &lt;b&gt;while&lt;/b&gt; ((j &amp;gt; 0) &amp;amp;&amp;amp; (array[j-1] &amp;gt; key)) {&lt;br/&gt;&lt;br/&gt;&lt;/font&gt;&lt;/li&gt;&lt;li&gt;&lt;font face=&quot;Courier New&quot; style=&quot;font-size: 15px&quot;&gt;         key = array[i];&lt;br/&gt;&lt;br/&gt;&lt;/font&gt;&lt;/li&gt;&lt;li&gt;&lt;font face=&quot;Courier New&quot; style=&quot;font-size: 15px&quot;&gt;         array[j] = array[j-1];&lt;br/&gt;&lt;br/&gt;&lt;/font&gt;&lt;/li&gt;&lt;li&gt;&lt;font face=&quot;Courier New&quot; style=&quot;font-size: 15px&quot;&gt;         j--;&lt;br/&gt;&lt;br/&gt;&lt;/font&gt;&lt;/li&gt;&lt;li&gt;&lt;font face=&quot;Courier New&quot; style=&quot;font-size: 15px&quot;&gt;      }&lt;br/&gt;&lt;br/&gt;&lt;/font&gt;&lt;/li&gt;&lt;li&gt;&lt;font face=&quot;Courier New&quot; style=&quot;font-size: 15px&quot;&gt;      array[j] = key;&lt;br/&gt;&lt;br/&gt;&lt;/font&gt;&lt;/li&gt;&lt;li&gt;&lt;font face=&quot;Courier New&quot; style=&quot;font-size: 15px&quot;&gt;   }&lt;br/&gt;&lt;br/&gt;&lt;/font&gt;&lt;/li&gt;&lt;li&gt;&lt;font face=&quot;Courier New&quot; style=&quot;font-size: 15px&quot;&gt;}&lt;/font&gt;&lt;/li&gt;&lt;/ol&gt;&lt;/pre&gt;" style="text;html=1;strokeColor=none;fillColor=none;align=left;verticalAlign=middle;whiteSpace=wrap;rounded=0;" vertex="1" parent="1">
          <mxGeometry x="80" y="40" width="451" height="580" as="geometry" />
        </mxCell>
      </root>
    </mxGraphModel>
  </diagram>
</mxfile>
